<svg xmlns="http://www.w3.org/2000/svg" version="1.1" xmlns:xlink="http://www.w3.org/1999/xlink" xmlns:svgjs="http://svgjs.dev/svgjs" width="128" height="128" viewBox="0 0 128 128"><g transform="matrix(0.46396396396396394,0,0,0.46396396396396394,34.362984996799554,12.333870967741937)"><svg viewBox="0 0 89 155" data-background-color="#ffffff" preserveAspectRatio="xMidYMid meet" height="222" width="128" xmlns="http://www.w3.org/2000/svg" xmlns:xlink="http://www.w3.org/1999/xlink"><g id="tight-bounds" transform="matrix(1,0,0,1,-0.0849406528190002,0.25)"><svg viewBox="0 0 89.16988130563799 154.5" height="154.5" width="89.16988130563799"><g><svg viewBox="0 0 89.16988130563799 154.5" height="154.5" width="89.16988130563799"><g><svg viewBox="0 0 89.16988130563799 154.5" height="154.5" width="89.16988130563799"><g><svg viewBox="0 0 89.16988130563799 154.5" height="154.5" width="89.16988130563799"><g><svg viewBox="0 0 89.16988130563799 154.5" height="154.5" width="89.16988130563799"><g transform="matrix(1,0,0,1,0,0)"><svg width="89.16988130563799" viewBox="3.65 -33.7 19.450000000000003 33.7" height="154.5" data-palette-color="#7f56d9"><path d="M23.1-4.3L23.1 0 3.65 0 3.65-33.7 22.85-33.7 22.85-29.4 8.8-29.4 8.8-19 21.25-19 21.25-14.7 8.8-14.7 8.8-4.3 23.1-4.3Z" opacity="1" transform="matrix(1,0,0,1,0,0)" fill="#7f56d9" class="undefined-text-0" data-fill-palette-color="primary" id="text-0"></path></svg></g></svg></g></svg></g></svg></g></svg></g><defs></defs></svg><rect width="89.16988130563799" height="154.5" fill="none" stroke="none" visibility="hidden"></rect></g></svg></g></svg>